<?xml version="1.0" encoding="UTF-8"?><svg xmlns="http://www.w3.org/2000/svg" xmlns:xlink="http://www.w3.org/1999/xlink" width="375" zoomAndPan="magnify" viewBox="0 0 375 374.999991" height="374.999991" preserveAspectRatio="xMidYMid meet" version="1.0"><defs><clipPath id="clip-0"><path d="M 16.347656 51.199219 L 358.316406 51.199219 L 358.316406 323.449219 L 16.347656 323.449219 Z M 16.347656 51.199219 " clip-rule="nonzero"/></clipPath></defs><path fill="rgb(100%, 100%, 100%)" d="M 187.460938 30.335938 C 100.683594 30.335938 30.335938 100.683594 30.335938 187.460938 C 30.335938 274.238281 100.683594 344.585938 187.460938 344.585938 C 274.238281 344.585938 344.585938 274.238281 344.585938 187.460938 C 344.585938 100.683594 274.238281 30.335938 187.460938 30.335938 Z M 187.460938 30.335938 " fill-opacity="1" fill-rule="nonzero"/><g clip-path="url(#clip-0)"><path fill="rgb(0%, 0%, 0%)" d="M 187.28125 323.414062 C 156.8125 323.414062 127.964844 313.503906 103.851562 294.761719 C 98.789062 290.816406 93.96875 286.496094 89.507812 281.890625 L 28.050781 281.890625 C 21.6875 281.890625 16.515625 276.714844 16.515625 270.359375 C 16.515625 263.996094 21.6875 258.824219 28.050781 258.824219 L 187.28125 258.824219 C 189.292969 258.824219 191.316406 258.625 193.277344 258.222656 C 207.183594 255.390625 217.28125 243.023438 217.28125 228.835938 C 217.28125 212.296875 203.824219 198.835938 187.28125 198.835938 C 187.273438 198.835938 187.273438 198.835938 187.273438 198.835938 C 173.125 198.835938 159.800781 193.316406 149.773438 183.28125 C 139.738281 173.25 134.207031 159.929688 134.207031 145.773438 C 134.207031 119.597656 153.765625 97.039062 179.703125 93.304688 C 182.539062 92.894531 184.945312 92.710938 187.28125 92.710938 L 249.101562 92.710938 C 246.28125 90.855469 243.378906 89.132812 240.410156 87.554688 C 224.144531 78.855469 205.769531 74.253906 187.273438 74.253906 C 183.6875 74.253906 180.046875 74.425781 176.449219 74.761719 C 122.679688 79.804688 79.90625 122.476562 74.738281 176.238281 C 73.398438 190.191406 74.582031 203.988281 78.253906 217.308594 L 187.28125 217.308594 C 193.636719 217.308594 198.816406 222.484375 198.816406 228.839844 C 198.816406 235.203125 193.644531 240.375 187.28125 240.375 L 28.050781 240.375 C 21.6875 240.375 16.515625 235.195312 16.515625 228.839844 C 16.515625 222.480469 21.6875 217.308594 28.050781 217.308594 L 54.492188 217.308594 C 50.980469 201.804688 50.210938 185.9375 52.222656 170.054688 C 60.273438 106.527344 112.414062 56.714844 176.199219 51.625 C 179.882812 51.328125 183.617188 51.1875 187.289062 51.1875 C 217.757812 51.1875 246.601562 61.097656 270.714844 79.839844 C 275.785156 83.78125 280.605469 88.105469 285.058594 92.710938 L 346.515625 92.710938 C 352.878906 92.710938 358.050781 97.886719 358.050781 104.242188 C 358.050781 110.605469 352.878906 115.777344 346.515625 115.777344 L 187.28125 115.777344 C 185.269531 115.777344 183.242188 115.976562 181.277344 116.378906 C 166.824219 119.324219 156.523438 132.675781 157.328125 147.425781 C 158.152344 162.835938 171.996094 175.296875 188.839844 175.785156 C 217.246094 176.601562 240.363281 200.402344 240.363281 228.828125 C 240.363281 255.003906 220.800781 277.5625 194.867188 281.296875 C 192.027344 281.703125 189.621094 281.890625 187.289062 281.890625 L 125.464844 281.890625 C 128.289062 283.742188 131.191406 285.46875 134.148438 287.046875 C 150.417969 295.746094 168.792969 300.347656 187.28125 300.347656 C 190.859375 300.347656 194.5 300.175781 198.089844 299.835938 C 251.859375 294.804688 294.648438 252.136719 299.820312 198.386719 C 301.164062 184.417969 299.984375 170.613281 296.308594 157.300781 L 187.28125 157.300781 C 180.917969 157.300781 175.746094 152.121094 175.746094 145.765625 C 175.746094 139.402344 180.917969 134.234375 187.28125 134.234375 L 346.507812 134.234375 C 352.875 134.234375 358.042969 139.410156 358.042969 145.765625 C 358.042969 152.128906 352.875 157.300781 346.507812 157.300781 L 320.078125 157.300781 C 323.71875 173.355469 324.40625 189.789062 322.117188 206.234375 C 313.394531 268.863281 261.34375 317.957031 198.34375 322.984375 C 194.664062 323.265625 190.945312 323.414062 187.28125 323.414062 Z M 187.28125 323.414062 " fill-opacity="1" fill-rule="nonzero"/></g></svg>